<?xml version="1.0" standalone="no"?>
<!DOCTYPE svg PUBLIC "-//W3C//DTD SVG 1.1//EN" "http://www.w3.org/Graphics/SVG/1.1/DTD/svg11.dtd" >
<svg xmlns="http://www.w3.org/2000/svg">
<metadata>Generated by IcoMoon</metadata>
<defs>
<font id="iconfont" horiz-adv-x="1024">
<font-face units-per-em="1024" ascent="960" descent="-64" />
<missing-glyph horiz-adv-x="1024" />
<glyph unicode="&#x20;" horiz-adv-x="512" d="" />
<glyph unicode="&#xe900;" glyph-name="dacia-icon-navi" d="M865.352 115.38l-28.845-24.518c-121.149 80.766-188.935 122.592-324.507 197.589-135.572-74.997-203.358-115.38-323.065-196.146l-30.287 23.076c115.38 272.586 181.724 428.349 331.718 721.127h43.268c149.994-292.777 216.338-448.541 331.718-721.127z" />
<glyph unicode="&#xe901;" glyph-name="dacia-icon-radio" d="M100.958 605.747l154.321 245.183 33.172-23.076-138.456-222.107h773.048v-562.479h-822.085v562.479zM266.817 488.924c-24.518 0-36.056-12.98-36.056-36.056 0-24.518 11.538-37.499 36.056-37.499s37.499 12.98 37.499 37.499c-1.442 24.518-12.98 36.056-37.499 36.056zM765.837 323.065c0 103.842-62.017 167.301-167.301 167.301-103.842 0-167.301-64.901-167.301-167.301s63.459-165.859 167.301-165.859c105.285 0 167.301 63.459 167.301 165.859zM478.828 323.065c0 76.439 44.71 122.592 121.149 122.592s119.707-44.71 119.707-122.592c0-76.439-44.71-121.149-119.707-121.149-77.882 1.442-121.149 46.152-121.149 121.149z" />
<glyph unicode="&#xe902;" glyph-name="dacia-icon-media" d="M301.431 72.113c-83.651 0-142.783 50.479-142.783 121.149 0 72.113 59.132 122.592 138.456 122.592 41.825 0 83.651-17.307 106.727-43.268v506.231l447.099 57.69v-584.113c0-82.208-59.132-137.014-145.668-137.014-83.651 0-142.783 50.479-142.783 121.149 0 72.113 59.132 122.592 138.456 122.592 38.941 0 80.766-15.865 106.727-37.499v331.718l-360.563-47.594v-396.62c0-80.766-60.575-137.014-145.668-137.014z" />
<glyph unicode="&#xe903;" glyph-name="dacia-icon-phone" d="M729.78 376.428l181.724-181.724c-37.499-95.189-108.169-151.437-194.704-151.437-106.727 0-220.665 70.67-383.639 232.203s-232.203 276.913-232.203 383.639c0 89.42 53.363 164.417 147.11 199.031l186.051-186.051-118.265-118.265 295.662-294.22 118.265 116.823z" />
<glyph unicode="&#xe904;" glyph-name="dacia-icon-device" d="M144.225 767.279c0 33.172 18.749 53.363 53.363 53.363h210.569c33.172 0 53.363-20.192 53.363-53.363v-210.569c0-33.172-18.749-53.363-53.363-53.363h-210.569c-33.172 0-53.363 18.749-53.363 53.363v210.569zM144.225 350.468c0 33.172 18.749 53.363 53.363 53.363h210.569c33.172 0 53.363-20.192 53.363-53.363v-210.569c0-33.172-18.749-53.363-53.363-53.363h-210.569c-33.172 0-53.363 18.749-53.363 53.363v210.569zM562.479 350.468c0 33.172 18.749 53.363 53.363 53.363h210.569c33.172 0 53.363-20.192 53.363-53.363v-210.569c0-33.172-18.749-53.363-53.363-53.363h-210.569c-33.172 0-53.363 18.749-53.363 53.363v210.569zM634.592 767.279c0 33.172 18.749 53.363 53.363 53.363h138.456c33.172 0 53.363-20.192 53.363-53.363v-122.592c0-33.172-18.749-53.363-53.363-53.363h-138.456c-33.172 0-53.363 18.749-53.363 53.363v122.592z" />
<glyph unicode="&#xe905;" glyph-name="dacia-icon-info" d="M512 129.803c-40.383 0-73.555 5.769-111.054 14.423-72.113-43.268-108.169-63.459-184.608-100.958l-28.845 21.634c10.096 79.324 23.076 125.476 43.268 194.704-54.806 66.344-86.535 142.783-86.535 240.856 0 220.665 168.744 364.89 367.775 364.89s367.775-144.225 367.775-366.332c0-229.318-164.417-369.217-367.775-369.217zM432.676 533.634h72.113v-171.628h-72.113v-44.71h187.493v44.71h-72.113v214.896h-115.38v-43.268zM526.423 633.149c25.961 0 37.499 12.98 37.499 37.499s-11.538 37.499-37.499 37.499c-24.518 0-37.499-12.98-37.499-37.499s12.98-37.499 37.499-37.499z" />
<glyph unicode="&#xe906;" glyph-name="dacia-icon-setting" d="M923.042 367.775l-28.845-8.654c-85.093-24.518-115.38-60.575-115.38-119.707 0-20.192 5.769-43.268 12.98-66.344l7.211-23.076c-40.383-30.287-96.631-64.901-152.879-89.42l-15.865 20.192c-37.499 49.037-76.439 64.901-118.265 64.901s-80.766-15.865-118.265-64.901l-15.865-20.192c-54.806 25.961-112.496 59.132-152.879 89.42l7.211 23.076c7.211 23.076 12.98 46.152 12.98 66.344 0 59.132-30.287 95.189-115.38 119.707l-28.845 8.654v174.513l28.845 8.654c85.093 24.518 115.38 60.575 115.38 119.707 0 20.192-5.769 43.268-12.98 66.344l-7.211 23.076c40.383 30.287 96.631 64.901 152.879 89.42l15.865-20.192c37.499-49.037 76.439-64.901 118.265-64.901s80.766 15.865 118.265 64.901l15.865 20.192c54.806-25.961 112.496-59.132 152.879-89.42l-8.654-24.518c-7.211-23.076-12.98-46.152-12.98-66.344 0-59.132 30.287-95.189 115.38-119.707l28.845-8.654v-173.070zM512 634.592c-113.938 0-181.724-69.228-181.724-180.282 0-112.496 67.786-181.724 181.724-181.724 112.496 1.442 180.282 69.228 180.282 181.724 0 111.054-67.786 180.282-180.282 180.282z" />
<glyph unicode="&#xe907;" glyph-name="dacia-icon-help" d="M923.042 454.31c0-246.625-164.417-411.042-411.042-411.042s-411.042 164.417-411.042 411.042 164.417 411.042 411.042 411.042c246.625 0 411.042-164.417 411.042-411.042zM602.862 601.42c0-28.845-8.654-57.69-33.172-82.208l-36.056-37.499c-37.499-37.499-44.71-62.017-44.71-96.631v-40.383h44.71v40.383c0 28.845 4.327 44.71 33.172 72.113l38.941 40.383c33.172 34.614 44.71 69.228 44.71 108.169 0 73.555-54.806 116.823-132.687 116.823-34.614 0-69.228-5.769-113.938-15.865v-46.152c43.268 11.538 85.093 17.307 113.938 17.307 51.921-1.442 85.093-30.287 85.093-76.439zM512 274.028c-25.961 0-37.499-12.98-37.499-37.499 0-23.076 11.538-36.056 37.499-36.056 24.518 0 37.499 12.98 37.499 36.056 0 25.961-12.98 37.499-37.499 37.499z" />
<glyph unicode="&#xe908;" glyph-name="icon-shuffle" d="M710.531 109.494v83.592h-60.604c-71.053 0-91.951 10.449-129.567 71.053l-91.951 148.376-91.951-148.376c-37.616-58.514-58.514-71.053-129.567-71.053h-60.604v41.796h66.873c45.976 0 58.514 8.359 81.502 45.976l108.669 175.543-108.669 175.543c-22.988 35.527-35.527 41.796-81.502 41.796h-66.873v41.796h60.604c71.053 0 94.041-10.449 129.567-71.053l91.951-148.376 91.951 148.376c37.616 60.604 54.335 71.053 129.567 71.053h60.604v83.592l167.184-104.49-167.184-104.49v83.592h-66.873c-45.976 0-58.514-6.269-81.502-43.886l-108.669-175.543 108.669-175.543c22.988-37.616 35.527-45.976 81.502-45.976h66.873v83.592l167.184-104.49-167.184-102.4z" />
<glyph unicode="&#xe909;" glyph-name="icon-repeat-one" d="M376.163 109.494v85.682c-137.927 16.718-229.878 117.029-229.878 259.135 0 154.645 108.669 261.224 271.673 261.224v-41.796c-137.927 0-229.878-87.771-229.878-219.429 0-119.118 73.143-202.71 188.082-217.339v81.502l167.184-104.49-167.184-104.49zM543.347 339.371h-41.796v167.184l-41.796-20.898v39.706l45.976 22.988h37.616v-208.98zM606.041 193.086v41.796c137.927 0 229.878 87.771 229.878 219.429 0 119.118-73.143 202.71-188.082 217.339v-81.502l-167.184 104.49 167.184 104.49v-85.682c140.016-16.718 229.878-114.939 229.878-259.135 0-156.735-110.759-261.224-271.673-261.224z" />
<glyph unicode="&#xe90a;" glyph-name="icon-backward" d="M146.286 650.751h41.796v-394.971h-41.796v394.971zM522.449 652.841v-397.061l-334.367 198.531 334.367 198.531zM877.714 673.739v-438.857l-355.265 219.429 355.265 219.429zM835.918 312.204v284.212l-229.878-142.106 229.878-142.106z" />
<glyph unicode="&#xe90b;" glyph-name="icon-play" d="M313.469 193.086v522.449l397.061-261.224-397.061-261.224zM355.265 270.408l284.212 183.902-284.212 183.902v-367.804z" />
<glyph unicode="&#xe90c;" glyph-name="icon-pause" d="M355.265 234.881v438.857h104.49v-438.857h-104.49zM564.245 234.881v438.857h104.49v-438.857h-104.49z" />
<glyph unicode="&#xe90d;" glyph-name="icon-forward" d="M146.286 234.881v438.857l355.265-219.429-355.265-219.429zM188.082 312.204l229.878 142.106-229.878 142.106v-284.212zM835.918 454.31l-334.367-198.531v397.061l334.367-198.531zM877.714 255.779h-41.796v394.971h41.796v-394.971z" />
<glyph unicode="&#xe90e;" glyph-name="icon-favorite" d="M606.041 548.351l208.98-41.796-167.184-125.388 62.694-208.98-198.531 104.49-198.531-104.49 62.694 208.98-167.184 125.388 208.98 41.796 94.041 188.082 94.041-188.082z" />
<glyph unicode="&#xe90f;" glyph-name="icon-favor" d="M146.286 454.31c0 200.62 165.094 365.714 365.714 365.714s365.714-165.094 365.714-365.714c0-200.62-165.094-365.714-365.714-365.714s-365.714 165.094-365.714 365.714zM428.408 552.53l-198.531-31.347 160.914-114.939-62.694-194.351 183.902 100.31 183.902-100.31-62.694 194.351 160.914 114.939-198.531 31.347-83.592 183.902-83.592-183.902z" />
<glyph unicode="&#xe910;" glyph-name="icon-repeat" d="M376.163 109.494v85.682c-137.927 16.718-229.878 117.029-229.878 259.135 0 154.645 108.669 261.224 271.673 261.224v-41.796c-137.927 0-229.878-87.771-229.878-219.429 0-119.118 73.143-202.71 188.082-217.339v81.502l167.184-104.49-167.184-104.49zM606.041 193.086v41.796c137.927 0 229.878 87.771 229.878 219.429 0 119.118-73.143 202.71-188.082 217.339v-81.502l-167.184 104.49 167.184 104.49v-85.682c140.016-16.718 229.878-114.939 229.878-259.135 0-154.645-110.759-261.224-271.673-261.224z" />
<glyph unicode="&#xe911;" glyph-name="icon-step-backward" d="M313.469 694.637h41.796v-480.653h-41.796v480.653zM752.327 715.534v-522.449l-397.061 261.224 397.061 261.224zM710.531 272.498v363.624l-271.673-181.812 271.673-181.812z" />
<glyph unicode="&#xe912;" glyph-name="icon-step-forward" d="M313.469 193.086v522.449l397.061-261.224-397.061-261.224zM355.265 272.498l271.673 181.812-271.673 181.812v-363.624zM752.327 213.983h-39.706v480.653h39.706v-480.653z" />
<glyph unicode="&#xe913;" glyph-name="icon-menutexture" d="M353.698 454.247c0-43.008-29.612-72.704-72.516-72.704-41.88 0-71.492 30.72-71.492 72.704s29.612 72.704 71.492 72.704 72.516-30.72 72.516-72.704zM583.513 454.247c0-43.008-30.636-72.704-73.54-72.704-40.856 0-70.489 30.72-70.489 72.704s29.612 72.704 70.489 72.704c41.88 0 73.54-30.72 73.54-72.704zM812.304 454.247c0-43.008-29.612-72.704-72.516-72.704-40.856 0-70.489 30.72-70.489 72.704s29.612 72.704 70.489 72.704c41.88 0 72.516-30.72 72.516-72.704z" />
<glyph unicode="&#xe914;" glyph-name="icon-back" d="M697.908 256.636h-551.539v39.936h551.539c76.612 0 137.885 61.44 137.885 137.195s-61.294 136.192-137.885 136.192h-364.628v-104.448l-186.911 124.928 186.911 124.928v-105.472h364.628c98.053 0 177.716-78.827 177.716-176.107 0-98.325-79.663-177.152-177.716-177.152z" />
<glyph unicode="&#xe915;" glyph-name="icon-close" d="M771.448 151.164l-260.451 261.099-261.475-261.099-40.856 40.96 260.451 262.123-260.451 261.099 41.88 41.984 260.451-262.123 260.451 262.123 41.88-41.984-261.475-261.099 260.451-262.123-40.856-40.96z" />
<glyph unicode="&#xe916;" glyph-name="icon-stop" d="M313.469 255.779v397.061h397.061v-397.061h-397.061z" />
<glyph unicode="&#xe917;" glyph-name="renault-icon-navi" d="M850.93 64.902c-126.918 85.093-196.146 125.476-338.93 204.8-142.783-79.324-212.011-119.707-338.93-204.8l-36.056 25.961c122.592 291.335 194.704 448.541 354.794 758.625h40.383c161.532-310.085 232.203-467.29 354.794-758.625l-36.056-25.961zM824.969 128.361c-106.727 250.952-183.166 416.811-312.969 669.206-128.361-252.394-206.242-418.254-312.969-669.206 103.842 69.228 186.051 119.707 312.969 188.935 126.918-69.228 209.127-119.707 312.969-188.935z" />
<glyph unicode="&#xe918;" glyph-name="renault-icon-radio" d="M86.535 618.727v0l165.859 262.49 36.056-23.076-149.994-239.414h797.566v-589.882h-849.487v589.882zM895.639 70.671v506.231h-767.279v-506.231h767.279zM301.431 452.868c0-23.076-12.98-34.614-36.056-34.614s-34.614 12.98-34.614 34.614c0 23.076 11.538 36.056 34.614 36.056 24.518 0 36.056-11.538 36.056-36.056zM598.535 160.090c-102.4 0-165.859 63.459-165.859 164.417s63.459 165.859 165.859 165.859c102.4 0 164.417-64.901 164.417-165.859 1.442-100.958-62.017-164.417-164.417-164.417zM598.535 201.916c76.439 0 119.707 44.71 119.707 121.149 0 79.324-44.71 124.034-119.707 124.034-76.439 0-121.149-46.152-121.149-124.034 1.442-74.997 44.71-121.149 121.149-121.149z" />
<glyph unicode="&#xe919;" glyph-name="renault-icon-media" d="M284.124 62.017c-89.42 0-148.552 51.921-148.552 132.687 0 82.208 59.132 132.687 148.552 132.687 40.383 0 79.324-15.865 105.285-38.941v503.346l475.944 59.132v-595.651c0-89.42-57.69-148.552-147.11-148.552s-148.552 51.921-148.552 132.687c0 82.208 59.132 132.687 148.552 132.687 40.383 0 79.324-14.423 103.842-37.499v307.2l-389.408-50.479v-382.197c0-89.42-59.132-147.11-148.552-147.11zM385.082 194.704c0 56.248-40.383 89.42-100.958 89.42s-100.958-33.172-100.958-89.42c0-56.248 40.383-89.42 100.958-89.42s100.958 33.172 100.958 89.42zM432.676 637.476l390.851 50.479v112.496l-390.851-50.479v-112.496zM819.2 239.414c0 56.248-40.383 89.42-100.958 89.42s-100.958-33.172-100.958-89.42c0-56.248 40.383-89.42 100.958-89.42s100.958 33.172 100.958 89.42z" />
<glyph unicode="&#xe91a;" glyph-name="renault-icon-phone" d="M86.535 659.11c0 98.073 57.69 174.513 164.417 217.78l206.242-206.242-118.265-116.823 271.144-271.144 118.265 118.265 206.242-206.242c-44.71-106.727-119.707-164.417-217.78-164.417-121.149 0-240.856 72.113-399.504 230.761s-230.761 278.355-230.761 398.062zM716.8 72.113c73.555 0 129.803 38.941 165.859 111.054l-154.321 154.321-116.823-118.265-334.603 334.603 118.265 116.823-154.321 154.321c-72.113-33.172-111.054-90.862-111.054-165.859 0-102.4 72.113-214.896 220.665-364.89 152.879-152.879 263.932-222.107 366.332-222.107z" />
<glyph unicode="&#xe91b;" glyph-name="renault-icon-device" d="M129.803 778.817c0 33.172 21.634 56.248 57.69 56.248h227.876c37.499 0 57.69-23.076 57.69-56.248v-230.761c0-37.499-20.192-57.69-57.69-57.69h-226.434c-37.499 0-57.69 20.192-57.69 57.69v230.761zM129.803 362.006c0 33.172 21.634 56.248 57.69 56.248h227.876c37.499 0 57.69-23.076 57.69-56.248v-230.761c0-37.499-20.192-57.69-57.69-57.69h-226.434c-37.499 0-57.69 20.192-57.69 57.69v230.761zM411.042 533.634c15.865 0 23.076 7.211 23.076 23.076v214.896c0 14.423-8.654 21.634-24.518 21.634h-213.454c-15.865 0-23.076-7.211-23.076-21.634v-214.896c0-15.865 7.211-23.076 23.076-23.076h214.896zM411.042 113.938c15.865 0 23.076 7.211 23.076 24.518v216.338c0 14.423-8.654 21.634-24.518 21.634h-213.454c-15.865 0-23.076-7.211-23.076-21.634v-214.896c0-17.307 7.211-24.518 23.076-24.518h214.896zM549.499 362.006c0 33.172 20.192 56.248 57.69 56.248h227.876c37.499 0 59.132-23.076 59.132-56.248v-230.761c0-37.499-21.634-57.69-59.132-57.69h-229.318c-37.499 0-57.69 20.192-57.69 57.69v230.761zM827.854 113.938c15.865 0 23.076 7.211 23.076 24.518v216.338c0 14.423-8.654 21.634-24.518 21.634h-213.454c-15.865 0-23.076-7.211-23.076-21.634v-214.896c0-17.307 7.211-24.518 23.076-24.518h214.896zM620.169 778.817c0 34.614 21.634 57.69 57.69 57.69h157.206c37.499 0 57.69-23.076 57.69-57.69v-144.225c0-36.056-21.634-56.248-57.69-56.248h-155.763c-37.499 0-57.69 20.192-57.69 56.248v144.225zM827.854 618.727c15.865 0 23.076 7.211 23.076 23.076v128.361c0 15.865-7.211 23.076-23.076 23.076h-142.783c-15.865 0-23.076-8.654-23.076-23.076v-128.361c0-15.865 7.211-23.076 23.076-23.076h142.783z" />
<glyph unicode="&#xe91c;" glyph-name="renault-icon-info" d="M403.831 131.245c-76.439-41.825-119.707-63.459-201.915-100.958l-28.845 21.634c11.538 79.324 21.634 132.687 37.499 204.8-51.921 64.901-80.766 147.11-80.766 242.299 0 220.665 161.532 380.755 382.197 380.755s382.197-160.090 382.197-380.755c0-222.107-161.532-383.639-382.197-383.639-37.499 0-74.997 5.769-108.169 15.865zM512 157.206c196.146 0 338.93 142.783 338.93 340.372s-142.783 338.93-338.93 338.93c-196.146 0-338.93-142.783-338.93-338.93 0-93.746 33.172-171.628 86.535-230.761-14.423-63.459-25.961-118.265-34.614-178.839 62.017 30.287 106.727 56.248 164.417 90.862 38.941-14.423 79.324-21.634 122.592-21.634zM548.056 576.902v-216.338h72.113v-43.268h-187.493v43.268h72.113v174.513h-72.113v41.825h115.38zM490.366 670.648c0 23.076 12.98 36.056 36.056 36.056 24.518 0 36.056-12.98 36.056-36.056s-11.538-36.056-36.056-36.056c-23.076 0-36.056 12.98-36.056 36.056z" />
<glyph unicode="&#xe91d;" glyph-name="renault-icon-setting" d="M89.42 552.383l25.961 7.211c80.766 24.518 112.496 54.806 112.496 109.611 0 24.518-5.769 51.921-14.423 82.208l-7.211 23.076c46.152 34.614 111.054 73.555 171.628 103.842l15.865-18.749c40.383-47.594 76.439-64.901 118.265-64.901s77.882 17.307 118.265 64.901l15.865 18.749c62.017-30.287 125.476-69.228 171.628-103.842l-7.211-23.076c-8.654-30.287-14.423-57.69-14.423-82.208 0-54.806 31.73-85.093 112.496-109.611l25.961-8.654c2.885-69.228 2.885-125.476 0-196.146l-25.961-7.211c-80.766-23.076-112.496-54.806-112.496-109.611 0-23.076 5.769-50.479 14.423-82.208l7.211-23.076c-46.152-33.172-111.054-72.113-171.628-103.842l-15.865 18.749c-40.383 47.594-76.439 64.901-118.265 64.901-40.383 1.442-77.882-15.865-118.265-64.901l-15.865-18.749c-62.017 30.287-125.476 69.228-171.628 103.842l7.211 23.076c8.654 30.287 14.423 57.69 14.423 82.208 0 54.806-31.73 86.535-112.496 109.611l-25.961 8.654c-2.885 69.228-2.885 125.476 0 196.146zM892.755 519.211c-96.631 28.845-141.341 76.439-141.341 149.994 0 25.961 4.327 54.806 12.98 85.093-28.845 23.076-67.786 47.594-109.611 66.344-44.71-50.479-89.42-70.67-142.783-70.67s-98.073 18.749-142.783 70.67c-41.825-18.749-80.766-43.268-109.611-66.344 8.654-30.287 12.98-57.69 12.98-85.093 0-74.997-44.71-121.149-141.341-149.994-1.442-41.825-1.442-86.535 0-129.803 96.631-27.403 141.341-74.997 141.341-149.994 0-25.961-4.327-53.363-12.98-85.093 28.845-23.076 67.786-46.152 109.611-66.344 44.71 51.921 89.42 72.113 142.783 70.67 53.363 1.442 98.073-18.749 142.783-70.67 41.825 20.192 80.766 44.71 109.611 66.344-8.654 31.73-12.98 59.132-12.98 85.093 0 76.439 44.71 122.592 141.341 149.994 2.885 43.268 2.885 87.977 0 129.803zM512 647.572c121.149 0 194.704-73.555 194.704-194.704 0-118.265-72.113-193.262-194.704-193.262-121.149 0-194.704 74.997-194.704 194.704s73.555 193.262 194.704 193.262zM512 304.316c92.304 0 147.11 56.248 147.11 149.994s-54.806 149.994-147.11 149.994c-92.304 0-147.11-54.806-147.11-149.994s54.806-149.994 147.11-149.994z" />
<glyph unicode="&#xe91e;" glyph-name="renault-icon-help" d="M512 30.287c-255.279 0-425.465 168.744-425.465 424.023s170.186 425.465 425.465 425.465c255.279 0 425.465-170.186 425.465-425.465s-170.186-424.023-425.465-424.023zM512 73.555c224.992 0 379.313 149.994 379.313 380.755s-154.321 380.755-379.313 380.755c-224.992 0-379.313-148.552-379.313-380.755s154.321-380.755 379.313-380.755zM517.769 677.859c-33.172 0-69.228-5.769-112.496-17.307v44.71c43.268 10.096 77.882 15.865 112.496 15.865 76.439 0 132.687-43.268 132.687-115.38 0-37.499-8.654-72.113-43.268-108.169l-38.941-40.383c-28.845-30.287-33.172-44.71-33.172-72.113v-37.499h-43.268v37.499c0 36.056 5.769 59.132 43.268 96.631l37.499 37.499c23.076 24.518 33.172 53.363 33.172 82.208-2.885 46.152-36.056 76.439-87.977 76.439zM548.056 237.972c0-23.076-12.98-34.614-36.056-34.614-24.518 0-36.056 12.98-36.056 34.614 0 23.076 11.538 36.056 36.056 36.056 23.076 0 36.056-12.98 36.056-36.056z" />
<glyph unicode="&#xe91f;" glyph-name="icon-zoomin" d="M541.633 423.527v-313.323h-60.27v313.323h-313.553v61.419h313.553v313.323h60.27v-313.323h312.529v-61.419h-312.529z" />
<glyph unicode="&#xe920;" glyph-name="icon-driverestriction" d="M839.735 103.964c-86.016-80.896-201.756-131.072-327.708-131.072-264.22 0-481.335 218.14-481.335 482.332 0 266.268 217.116 482.332 481.335 482.332 264.192 0 481.308-216.092 481.308-482.332 0-126.976-50.176-242.716-131.072-328.704l3.072-3.072-22.528-22.528-3.072 3.044zM512.028-1.508c119.808 0 229.404 46.080 311.324 121.856l-645.175 645.175c-75.776-81.92-122.88-190.464-122.88-310.3 0-250.908 205.852-456.732 456.732-456.732zM200.704 788.051l645.175-645.175c76.8 81.92 124.956 191.488 124.956 312.348 0 250.908-206.876 456.732-458.78 456.732-119.836 0-229.404-47.104-311.351-123.904z" />
</font>
</defs>
</svg>
